<?xml version="1.0" encoding="UTF-8" standalone="no"?>
<svg
   xmlns:dc="http://purl.org/dc/elements/1.1/"
   xmlns:cc="http://creativecommons.org/ns#"
   xmlns:rdf="http://www.w3.org/1999/02/22-rdf-syntax-ns#"
   xmlns:svg="http://www.w3.org/2000/svg"
   xmlns="http://www.w3.org/2000/svg"
   xmlns:sodipodi="http://sodipodi.sourceforge.net/DTD/sodipodi-0.dtd"
   xmlns:inkscape="http://www.inkscape.org/namespaces/inkscape"
   width="210mm"
   height="297mm"
   viewBox="0 0 210 297"
   version="1.1"
   id="svg3769"
   inkscape:version="1.0.2 (e86c8708, 2021-01-15)"
   sodipodi:docname="logo.svg">
  <defs
     id="defs3763" />
  <sodipodi:namedview
     id="base"
     pagecolor="#ffffff"
     bordercolor="#666666"
     borderopacity="1.0"
     inkscape:pageopacity="0.0"
     inkscape:pageshadow="2"
     inkscape:zoom="0.7"
     inkscape:cx="100.62286"
     inkscape:cy="666.71264"
     inkscape:document-units="mm"
     inkscape:current-layer="layer1"
     inkscape:document-rotation="0"
     showgrid="false"
     inkscape:window-width="1398"
     inkscape:window-height="785"
     inkscape:window-x="-2"
     inkscape:window-y="23"
     inkscape:window-maximized="0" />
  <metadata
     id="metadata3766">
    <rdf:RDF>
      <cc:Work
         rdf:about="">
        <dc:format>image/svg+xml</dc:format>
        <dc:type
           rdf:resource="http://purl.org/dc/dcmitype/StillImage" />
        <dc:title />
      </cc:Work>
    </rdf:RDF>
  </metadata>
  <g
     inkscape:label="Livello 1"
     inkscape:groupmode="layer"
     id="layer1">
    <g
       id="g86"
       transform="translate(28.91018,80.084091)"
       inkscape:export-filename="/Users/francesco.cottone/Downloads/logo.png"
       inkscape:export-xdpi="175"
       inkscape:export-ydpi="175">
      <g
         aria-label="Chronicles of"
         id="text3773"
         style="font-size:6.50258px;line-height:1.25;font-family:Seshat;-inkscape-font-specification:Seshat;text-align:center;text-anchor:middle;stroke-width:0.264583">
        <path
           d="M 70.684887,56.822836 C 70.74341,56.549728 70.821441,56.32864 70.91898,56.094547 70.645871,55.879962 70.106157,55.7239 69.572945,55.7239 c -1.443572,0 -2.477483,1.014403 -2.477483,2.431965 0,1.241993 0.923367,2.132847 2.184867,2.132847 0.396658,0 0.910362,-0.136555 1.163962,-0.325129 l 0.273109,-0.20158 0.09104,-0.383653 -0.03251,-0.01951 c -0.344637,0.338134 -0.897356,0.513704 -1.287511,0.513704 -1.014403,0 -1.775205,-0.728289 -1.775205,-1.911759 0,-1.072926 0.637253,-1.872743 1.645153,-1.872743 0.442176,0 0.884351,0.156062 1.053418,0.357642 0.03251,0.04552 0.05202,0.09104 0.05202,0.156062 0,0.07153 -0.0065,0.117046 -0.02601,0.20158 z"
           style="text-align:center;text-anchor:middle;stroke-width:0.264583"
           id="path19" />
        <path
           d="m 74.228285,60.035111 c -0.247098,-0.0065 -0.409663,-0.06503 -0.416165,-0.221088 -0.01951,-0.364144 -0.01951,-0.903858 -0.0065,-1.469583 0.01301,-0.533211 -0.318626,-0.864843 -0.884351,-0.864843 -0.390155,0 -0.702278,0.247098 -0.825827,0.60474 v -0.188575 c 0,-1.378547 0.01301,-1.86624 0.09104,-2.334426 l -0.01951,-0.03251 c -0.299119,0.07803 -0.624248,0.104041 -1.059921,0.110544 v 0.162564 c 0.325129,0.013 0.448678,0.08453 0.468186,0.247098 0.03902,0.305622 0.05202,0.663264 0.05202,1.846733 0,1.23549 -0.013,1.554117 -0.05202,1.918261 -0.01951,0.156062 -0.17557,0.214585 -0.422668,0.221088 v 0.156062 c 0.214586,-0.01951 0.474689,-0.01951 0.708782,-0.01951 0.234093,0 0.494196,0 0.715283,0.01951 v -0.156062 c -0.2536,-0.0065 -0.409662,-0.06503 -0.42917,-0.221088 -0.03901,-0.364144 -0.05202,-0.682771 -0.05202,-0.877848 0,-0.728289 0.344636,-1.059921 0.650258,-1.059921 0.370647,0 0.591734,0.208083 0.585232,0.7543 -0.0065,0.728289 -0.01951,1.222485 -0.06503,1.528106 l 0.01301,0.02601 c 0.09754,-0.013 0.20158,-0.013 0.312124,-0.013 0.234093,0 0.422668,0 0.637253,0.01951 z"
           style="text-align:center;text-anchor:middle;stroke-width:0.264583"
           id="path21" />
        <path
           d="m 75.231511,57.479597 c -0.299119,0.07803 -0.526709,0.104041 -0.897356,0.110544 v 0.162564 c 0.325129,0.01301 0.455181,0.04552 0.481191,0.240596 0.03251,0.266606 0.03901,0.585232 0.03901,0.877848 0,0.390155 -0.013,0.57873 -0.05202,0.942874 -0.01951,0.156062 -0.17557,0.214585 -0.422668,0.221088 v 0.156062 c 0.214585,-0.01951 0.474688,-0.01951 0.708781,-0.01951 0.234093,0 0.494196,0 0.715284,0.01951 v -0.156062 c -0.253601,-0.0065 -0.409663,-0.06503 -0.42917,-0.221088 -0.03251,-0.286113 -0.05202,-0.624247 -0.05202,-0.877848 0,-0.812823 0.182072,-0.98189 0.468186,-0.98189 0.143057,0 0.266606,0.04552 0.357642,0.130052 h 0.02601 l 0.123549,-0.468186 v -0.02601 c -0.07153,-0.07803 -0.156062,-0.110544 -0.305621,-0.110544 -0.344637,0 -0.57873,0.234093 -0.695776,0.559222 -0.01301,-0.20158 -0.02601,-0.390155 -0.04552,-0.526709 z"
           style="text-align:center;text-anchor:middle;stroke-width:0.264583"
           id="path23" />
        <path
           d="m 77.855302,57.479597 c -0.734791,0 -1.307018,0.552719 -1.307018,1.404557 0,0.884351 0.468185,1.378547 1.228987,1.378547 0.734792,0 1.307019,-0.552719 1.307019,-1.404557 0,-0.884351 -0.468186,-1.378547 -1.228988,-1.378547 z m -0.04552,2.509996 c -0.435673,0 -0.702279,-0.494196 -0.702279,-1.163962 0,-0.734791 0.305622,-1.072926 0.715284,-1.072926 0.435673,0 0.702279,0.494196 0.702279,1.163962 0,0.734792 -0.305621,1.072926 -0.715284,1.072926 z"
           style="text-align:center;text-anchor:middle;stroke-width:0.264583"
           id="path25" />
        <path
           d="m 82.497433,60.035111 c -0.247098,-0.0065 -0.409663,-0.06503 -0.416165,-0.221088 -0.01951,-0.364144 -0.01951,-0.903858 -0.0065,-1.469583 0.01301,-0.533211 -0.318626,-0.864843 -0.884351,-0.864843 -0.409662,0 -0.734791,0.273108 -0.845335,0.663263 -0.013,-0.240595 -0.03251,-0.468186 -0.05202,-0.63075 l -0.01951,-0.03251 c -0.299118,0.07803 -0.526709,0.104041 -0.897356,0.110544 v 0.162564 c 0.325129,0.01301 0.455181,0.04552 0.481191,0.240596 0.03251,0.266606 0.03902,0.585232 0.03902,0.877848 0,0.390155 -0.013,0.57873 -0.05202,0.942874 -0.01951,0.156062 -0.17557,0.214585 -0.422668,0.221088 v 0.156062 c 0.214586,-0.01951 0.474689,-0.01951 0.708782,-0.01951 0.234093,0 0.494196,0 0.715283,0.01951 v -0.156062 c -0.2536,-0.0065 -0.409662,-0.06503 -0.42917,-0.221088 -0.03251,-0.286113 -0.05202,-0.624247 -0.05202,-0.877848 0,-0.728289 0.344636,-1.059921 0.650258,-1.059921 0.370647,0 0.591734,0.208083 0.585232,0.7543 -0.0065,0.728289 -0.01951,1.222485 -0.06503,1.528106 l 0.01301,0.02601 c 0.09754,-0.013 0.20158,-0.013 0.312124,-0.013 0.234093,0 0.422668,0 0.637253,0.01951 z"
           style="text-align:center;text-anchor:middle;stroke-width:0.264583"
           id="path27" />
        <path
           d="m 83.382394,57.037422 c 0.208083,0 0.344637,-0.136555 0.344637,-0.344637 0,-0.208083 -0.136554,-0.344637 -0.344637,-0.344637 -0.208082,0 -0.344637,0.136554 -0.344637,0.344637 0,0.208082 0.136555,0.344637 0.344637,0.344637 z m 0.702279,2.997689 c -0.247098,-0.0065 -0.40316,-0.06503 -0.422668,-0.221088 -0.03901,-0.364144 -0.05202,-0.552719 -0.05202,-0.942874 0,-0.435673 0.0065,-0.890853 0.05852,-1.359039 l -0.0195,-0.03251 c -0.299119,0.07803 -0.656761,0.104041 -1.001397,0.110544 v 0.162564 c 0.351139,0.01301 0.461683,0.08453 0.474688,0.247098 0.01951,0.240596 0.01951,0.565725 0.01951,0.871346 0,0.390155 -0.01301,0.57873 -0.05202,0.942874 -0.01951,0.156062 -0.17557,0.214585 -0.422668,0.221088 v 0.156062 c 0.214585,-0.01951 0.474689,-0.01951 0.708782,-0.01951 0.234092,0 0.494196,0 0.708781,0.01951 z"
           style="text-align:center;text-anchor:middle;stroke-width:0.264583"
           id="path29" />
        <path
           d="m 86.548846,58.214389 c 0.03251,-0.162565 0.07803,-0.35114 0.136554,-0.500699 -0.208082,-0.143057 -0.494196,-0.234093 -0.83233,-0.234093 -0.819325,0 -1.443573,0.611243 -1.443573,1.502096 0,0.760802 0.461683,1.281008 1.254998,1.281008 0.305622,0 0.468186,-0.04552 0.663263,-0.149559 l 0.221088,-0.117046 0.07153,-0.279611 -0.02601,-0.02601 c -0.195077,0.136554 -0.442175,0.227591 -0.663263,0.227591 -0.637253,0 -0.988392,-0.435673 -0.988392,-1.131449 0,-0.611243 0.344637,-1.0079 0.767304,-1.0079 0.273109,0 0.455181,0.07803 0.559222,0.175569 0.06503,0.05852 0.09104,0.123549 0.08453,0.234093 z"
           style="text-align:center;text-anchor:middle;stroke-width:0.264583"
           id="path31" />
        <path
           d="m 88.280461,60.035111 c -0.247098,-0.0065 -0.40316,-0.06503 -0.422668,-0.221088 -0.03902,-0.364144 -0.05202,-0.682771 -0.05202,-1.918261 0,-1.378547 0.013,-1.86624 0.09104,-2.334426 l -0.01951,-0.03251 c -0.299118,0.07803 -0.624247,0.104041 -1.05992,0.110544 v 0.162564 c 0.325129,0.013 0.448678,0.08453 0.468185,0.247098 0.03902,0.305622 0.05202,0.663264 0.05202,1.846733 0,1.23549 -0.013,1.554117 -0.05202,1.918261 -0.01951,0.156062 -0.175569,0.214585 -0.422667,0.221088 v 0.156062 c 0.214585,-0.01951 0.474688,-0.01951 0.708781,-0.01951 0.234093,0 0.494196,0 0.708781,0.01951 z"
           style="text-align:center;text-anchor:middle;stroke-width:0.264583"
           id="path33" />
        <path
           d="m 90.739961,59.996096 0.07153,-0.279611 -0.02601,-0.02601 c -0.195078,0.136554 -0.442176,0.227591 -0.663264,0.227591 -0.650258,0 -0.955879,-0.396658 -0.988392,-1.033911 0.182073,-0.0065 0.35114,-0.013 0.585232,-0.013 0.318627,0 0.533212,0 0.793315,0.0065 0.234093,0.0065 0.396658,-0.08453 0.396658,-0.17557 0,-0.754299 -0.416165,-1.222485 -0.988393,-1.222485 -0.812822,0 -1.320023,0.617745 -1.320023,1.534609 0,0.760802 0.448678,1.248495 1.254998,1.248495 0.305621,0 0.468185,-0.04552 0.663263,-0.149559 z m -1.599635,-1.339532 c 0.03251,-0.507201 0.260103,-0.897356 0.617745,-0.897356 0.37715,0 0.617745,0.383652 0.617745,0.825828 -0.17557,0.05852 -0.40316,0.08453 -0.676268,0.08453 -0.188575,0 -0.37715,-0.0065 -0.559222,-0.013 z"
           style="text-align:center;text-anchor:middle;stroke-width:0.264583"
           id="path35" />
        <path
           d="m 93.033645,58.175373 c 0.013,-0.149559 0.04552,-0.305621 0.09104,-0.448678 -0.130052,-0.143057 -0.383652,-0.247098 -0.656761,-0.247098 -0.60474,0 -0.981889,0.383652 -0.981889,0.812823 0,0.396657 0.234093,0.650258 0.702278,0.793314 0.325129,0.09754 0.442176,0.247098 0.442176,0.474689 0,0.299118 -0.22759,0.468185 -0.494196,0.468185 -0.14956,0 -0.279611,-0.03251 -0.409663,-0.117046 -0.07153,-0.04552 -0.136554,-0.162565 -0.136554,-0.338134 l -0.188575,0.013 c -0.01301,0.149559 -0.04552,0.318626 -0.09104,0.468186 0.214585,0.136554 0.468186,0.208082 0.708781,0.208082 0.572227,0 1.085931,-0.357642 1.085931,-0.936371 0,-0.318627 -0.162564,-0.526709 -0.695776,-0.702279 -0.331631,-0.110544 -0.474688,-0.240595 -0.474688,-0.513704 0,-0.208082 0.156062,-0.390155 0.40316,-0.390155 0.188575,0 0.312124,0.05202 0.422667,0.162565 0.06503,0.06503 0.08453,0.17557 0.08453,0.292616 z"
           style="text-align:center;text-anchor:middle;stroke-width:0.264583"
           id="path37" />
        <path
           d="m 96.308913,57.479597 c -0.734792,0 -1.307019,0.552719 -1.307019,1.404557 0,0.884351 0.468186,1.378547 1.228988,1.378547 0.734791,0 1.307018,-0.552719 1.307018,-1.404557 0,-0.884351 -0.468186,-1.378547 -1.228987,-1.378547 z m -0.04552,2.509996 c -0.435672,0 -0.702278,-0.494196 -0.702278,-1.163962 0,-0.734791 0.305621,-1.072926 0.715284,-1.072926 0.435673,0 0.702278,0.494196 0.702278,1.163962 0,0.734792 -0.305621,1.072926 -0.715284,1.072926 z"
           style="text-align:center;text-anchor:middle;stroke-width:0.264583"
           id="path39" />
        <path
           d="m 98.382526,57.596643 c -0.08453,0.03902 -0.234093,0.09104 -0.344637,0.110544 v 0.143057 h 0.357642 v 0.04552 c 0,1.23549 -0.01301,1.554117 -0.05202,1.918261 -0.01951,0.156062 -0.175569,0.214585 -0.422667,0.221088 v 0.156062 c 0.214585,-0.01951 0.474688,-0.01951 0.708781,-0.01951 0.234093,0 0.494196,0 0.715284,0.01951 v -0.156062 c -0.253601,-0.0065 -0.409663,-0.06503 -0.42917,-0.221088 -0.03902,-0.364144 -0.05202,-0.682771 -0.05202,-1.918261 v -0.04552 h 0.637253 c 0,-0.07153 0.01301,-0.182072 0.02601,-0.253601 h -0.676268 v -0.975387 c 0,-0.539714 0.130051,-0.80632 0.474688,-0.80632 0.156062,0 0.253601,0.03251 0.351139,0.117047 0.07803,0.06503 0.14956,0.169067 0.136555,0.318626 l 0.195074,-0.013 c 0.0455,-0.188575 0.11054,-0.396657 0.19508,-0.585232 -0.15606,-0.123549 -0.377149,-0.182072 -0.624247,-0.182072 -0.559222,0 -1.196475,0.487693 -1.196475,1.385049 z"
           style="text-align:center;text-anchor:middle;stroke-width:0.264583"
           id="path41" />
      </g>
      <g
         aria-label="Stampadia"
         id="text3777"
         style="font-style:normal;font-variant:normal;font-weight:normal;font-stretch:normal;font-size:40.7199px;line-height:1.25;font-family:Guttenbay;-inkscape-font-specification:Guttenbay;text-align:center;text-anchor:middle;stroke-width:0.264585">
        <path
           d="m 48.202288,69.979449 q 1.140157,1.710235 0.651519,3.90911 -0.407199,1.832395 -1.873116,3.624071 -2.321034,2.768953 -5.945105,4.479189 -2.117435,0.977277 -3.90911,1.262316 -1.262317,0.16288 -2.239594,-0.203599 -0.529359,-0.2036 -0.773679,-0.488639 -0.285039,-0.366479 -0.773678,-0.610798 -1.425196,-0.692239 -1.465916,-2.483914 -0.04072,-1.058718 0.488639,-2.280314 1.140157,-2.443194 2.565353,-3.868391 1.710236,-1.750955 3.827671,-2.524633 0.610798,-0.2036 1.262317,-0.12216 0.529358,0.08144 1.017997,0.855118 0.16288,0.244319 -0.04072,0.570078 -0.285039,0.325759 -0.447919,0.488639 -1.017997,0.855118 -2.076714,2.321034 -1.384477,1.913835 -2.035995,3.176152 -0.570079,1.058718 -0.732958,1.995275 0,0.04072 -0.04072,0.24432 0,0 0.08144,0.122159 0.16288,0 0.651519,-0.162879 1.750955,-0.529359 3.542631,-1.669516 2.402474,-1.588076 4.07199,-3.86839 1.140157,-1.547356 1.384476,-3.298312 0.2036,-1.262317 -0.244319,-2.158155 -0.244319,-0.488639 -0.610799,-0.773678 -1.017997,-0.732958 -2.076714,-1.140157 -0.24432,-0.12216 -3.053993,-1.180877 -1.465916,-0.570079 -2.565353,-1.262317 -1.343757,-0.814398 -2.076715,-1.913835 -0.04072,-0.12216 -0.529359,-0.651518 -1.506636,-1.710236 -1.425196,-4.03127 0.04072,-0.855118 0.488639,-1.995275 1.588076,-4.15343 5.293586,-6.678064 2.198875,-1.506636 4.764228,-1.425196 1.262317,0.04072 2.361754,0.570078 0.977278,0.447919 1.384477,1.221597 0.488639,0.855118 0.773678,1.465917 0.325759,0.651518 0.2036,1.547356 -0.2036,1.425196 -0.692239,2.483914 -0.04072,0.08144 -0.325759,0.773678 -0.244319,0.651518 -0.407199,1.017997 0,0 -0.162879,0.2036 -0.28504,-0.12216 -0.28504,-0.407199 0.08144,-0.570079 0.12216,-0.936558 0.366479,-1.832395 0.285039,-3.135432 -0.04072,-0.855118 -0.244319,-1.588076 -0.16288,-0.529359 -0.732958,-0.692238 -1.425197,-0.447919 -2.646794,0.08144 -0.814398,0.366479 -1.384476,0.773678 -3.94983,2.850393 -5.212147,7.451742 -0.285039,0.977277 -0.2036,2.035995 0.04072,0.529358 0.407199,0.773678 1.140157,0.732958 1.343757,0.855118 1.058717,0.488638 2.891113,1.180877 1.750955,0.692238 2.606073,1.140157 2.850393,1.425196 4.479189,4.397749 0.12216,0.285039 0.285039,0.529359 z M 37.492955,52.836371 q -0.814398,0.977278 -0.855118,1.465917 1.710236,-1.873116 1.832396,-1.995275 0.162879,-0.16288 2.158154,-1.913836 -0.651518,0.24432 -1.588076,0.977278 -0.936557,0.692238 -1.547356,1.465916 z m -3.339032,25.857136 q 0.732959,-1.588076 1.506637,-2.728233 0.122159,-0.16288 1.750955,-2.524634 -1.669516,1.425196 -2.809673,3.501911 -0.447919,0.814398 -0.447919,1.750956 z m 9.243417,-0.366479 q 1.058718,-0.529359 2.117435,-1.873116 1.058717,-1.343756 1.099437,-2.158154 -1.425196,1.954555 -1.547356,2.076715 -0.12216,0.162879 -1.669516,1.954555 z"
           style="font-style:normal;font-variant:normal;font-weight:normal;font-stretch:normal;font-family:Guttenbay;-inkscape-font-specification:Guttenbay;text-align:center;text-anchor:middle;stroke-width:0.264585"
           id="path44" />
        <path
           d="m 57.187389,58.659317 q 0,0 -0.203599,0.08144 -0.28504,1.099437 -0.325759,1.180877 -0.407199,1.669516 -1.995275,6.963102 -1.099438,3.624071 -1.588077,5.904386 -0.366479,1.425196 -0.447918,2.158154 -0.2036,1.017998 0,1.750956 0.122159,0.407199 -0.04072,0.570078 -0.2036,0.2036 -0.610799,0 -0.08144,-0.04072 -0.244319,-0.122159 -0.12216,-0.04072 -0.2036,-0.04072 -0.773678,-0.366479 -0.977277,-1.221597 -0.16288,-0.732958 -0.12216,-1.384477 0.2036,-1.710235 0.285039,-2.280314 0.651519,-3.786951 2.117435,-8.673338 0.244319,-0.732959 0.651518,-2.076715 0.407199,-1.343757 0.488639,-1.669516 0,0 0.04072,-0.244319 -0.08144,-0.12216 -0.366479,-0.04072 -0.12216,0 -0.977278,0.244319 -0.855117,0.2036 -1.303036,0.285039 -0.28504,0.08144 -0.936558,0.12216 -0.447919,0.08144 -0.773678,-0.16288 -0.285039,-0.162879 -0.285039,-0.325759 -0.04072,-0.122159 -0.366479,-0.773678 0,0 -0.08144,-0.447919 0.773678,-0.732958 0.855118,-0.773678 0.04072,-0.08144 0.610798,-0.814398 0.325759,-0.08144 0.529359,0.04072 0.203599,0.08144 0.244319,0.24432 0.08144,0.122159 0.2036,0.407199 1.628796,-0.447919 1.750955,-0.447919 0.16288,-0.04072 1.832396,-0.447919 0.162879,-0.366479 0.203599,-0.366479 0.04072,-0.16288 0.2036,-0.570079 0.203599,-0.447919 0.285039,-0.692238 0.08144,-0.16288 0.2036,-0.447919 0.162879,-0.285039 0.162879,-0.325759 0.325759,-0.692238 1.140157,-0.570079 0.325759,0.366479 0.651519,0.692239 0.04072,0.325759 -0.12216,0.936557 -0.12216,0.610799 -0.12216,0.936558 0.28504,0 0.325759,0 2.891113,-0.16288 3.013273,-0.16288 0.570079,0 1.750956,0.12216 0.651518,0.08144 1.180877,0.447919 0.447918,0.285039 0.488638,0.814398 0,0.325759 -0.285039,0.325759 -0.244319,0.04072 -0.447919,0.04072 -0.936557,-0.08144 -2.443194,0.162879 -0.447919,0.08144 -3.94983,0.651519 z m -5.171427,13.315407 q -0.08144,0.08144 -0.12216,0.692238 -0.162879,0.162879 -0.04072,0.529359 0,-0.12216 0,-0.28504 0.04072,-0.162879 0.04072,-0.285039 0.12216,-0.12216 0.12216,-0.692238 0.12216,-0.16288 0.12216,-0.2036 0.570078,-2.483914 1.669516,-6.311584 0,-0.04072 0.08144,-0.570079 0.28504,-0.407199 0.36648,-1.221597 -0.04072,0.08144 -0.16288,0.36648 -0.08144,0.244319 -0.16288,0.447918 -0.04072,0.2036 0,0.407199 -0.122159,0.04072 -0.203599,0.407199 -1.058718,3.501912 -1.425197,5.252867 -0.285039,1.262317 -0.285039,1.465917 z m -0.325759,1.954555 v -0.32576 z"
           style="font-style:normal;font-variant:normal;font-weight:normal;font-stretch:normal;font-family:Guttenbay;-inkscape-font-specification:Guttenbay;text-align:center;text-anchor:middle;stroke-width:0.264585"
           id="path46" />
        <path
           d="m 63.380631,66.192498 q -0.203599,0.732958 -0.285039,0.855118 -0.407199,-0.12216 -0.447919,-0.488639 -0.08144,-0.610798 -0.122159,-0.732958 0,-0.04072 -0.16288,-0.447919 -0.285039,0 -0.732958,0.366479 -0.610799,0.529359 -0.977278,1.180877 -0.651518,1.140157 -1.058717,1.995275 -0.855118,1.710236 -1.303037,3.135432 -0.203599,0.651519 -0.162879,0.895838 0.855117,-0.610798 1.750955,-1.628796 0.895838,-0.977277 1.343757,-1.913835 0.08144,-0.12216 1.017997,-2.117435 0.610799,-0.08144 0.651519,-0.08144 0.529358,0 0.732958,0.447919 0.162879,0.366479 0.447919,0.773678 0.244319,0.32576 0.162879,0.814398 -0.122159,1.221597 -0.162879,2.035995 -0.08144,1.465917 0.285039,3.053993 0.04072,0.325759 0.04072,0.529358 0,0.16288 -0.16288,0.24432 -0.122159,0.04072 -0.244319,-0.04072 -0.16288,-0.12216 -0.24432,-0.24432 -0.692238,-0.732958 -0.895837,-1.465916 -0.04072,-0.08144 -0.366479,-1.099437 -0.12216,0 -0.32576,0.285039 -0.895837,1.180877 -2.321034,2.321034 -0.651518,0.570079 -1.180877,0.692239 -0.366479,0.08144 -0.814398,0.122159 -0.366479,0 -0.814398,-0.325759 -0.04072,-0.04072 -0.325759,-0.366479 -0.285039,-0.325759 -0.570078,-0.651518 -0.24432,-0.366479 -0.28504,-0.407199 -0.325759,-0.814398 -0.122159,-1.954555 0.203599,-1.140158 0.692238,-2.198875 0.855118,-1.791675 2.076715,-3.542631 0.570078,-0.855118 1.140157,-1.303037 0.773678,-0.610798 1.425196,-0.773678 0.407199,-0.08144 0.814398,-0.08144 0.610799,0.04072 0.977278,0.529359 0.122159,0.16288 0.366479,0.570079 0.325759,0.488638 0.162879,1.017997 z m -2.239594,5.578626 q -0.325759,0.325759 -1.058717,1.058717 -0.732959,0.732959 -1.140157,1.140158 0.407198,-0.2036 0.855117,-0.570079 0.488639,-0.407199 0.855118,-0.855118 0.366479,-0.447919 0.488639,-0.773678 z m -0.773678,-5.985825 q 0,0 0.08144,-0.16288 -0.28504,0.16288 -0.407199,0.447919 0.285039,-0.285039 0.325759,-0.285039 z"
           style="font-style:normal;font-variant:normal;font-weight:normal;font-stretch:normal;font-family:Guttenbay;-inkscape-font-specification:Guttenbay;text-align:center;text-anchor:middle;stroke-width:0.264585"
           id="path48" />
        <path
           d="m 66.403446,65.25594 q 0,-0.04072 0.12216,-0.651518 0.447919,-0.12216 0.529359,-0.08144 0.122159,0.04072 0.366479,0.325759 0.366479,0.447919 0.366479,0.977278 0,0.814398 0,0.936558 -0.04072,0.325759 -0.08144,0.692238 0,0.325759 -0.04072,0.732958 -0.04072,0.407199 -0.04072,0.651518 0,0 -0.04072,0.447919 0.12216,0.08144 0.24432,-0.122159 0.12216,-0.2036 0.285039,-0.488639 0.16288,-0.325759 0.325759,-0.610799 0.16288,-0.285039 0.28504,-0.488638 0.570078,-0.977278 1.262316,-1.750956 0.12216,-0.16288 0.610799,-0.610799 0.325759,-0.325759 0.936558,-0.325759 0.447918,0 0.610798,0.325759 0.04072,0.08144 0.16288,0.24432 0.651518,0.814398 0.447919,1.750955 0,0.04072 -0.08144,0.651519 0.162879,-0.08144 0.447919,-0.529359 1.058717,-1.588076 2.239594,-2.524634 0.651518,-0.529358 1.262317,-0.570078 0.651518,-0.04072 0.936558,0.407199 0.570078,0.855118 0.570078,0.895838 0.2036,0.366479 0.16288,0.977277 -0.08144,1.343757 -0.529359,3.339032 -0.12216,0.570078 -0.447919,1.873115 -0.325759,1.303037 -0.529359,2.280314 -0.203599,0.977278 -0.366479,1.873116 -0.366479,2.361754 -0.407199,2.646793 -0.162879,1.303037 0.08144,2.117435 0.692238,0.814398 0.732958,0.895838 0.2036,0.285039 -0.162879,0.407199 -0.570079,0.285039 -1.099437,-0.2036 -0.936558,-0.855118 -1.221597,-1.343757 -0.28504,-0.529358 -0.447919,-1.058717 -0.651519,-2.035995 -0.2036,-4.601348 0.325759,-1.710236 1.140157,-4.07199 0.28504,-0.895838 1.017998,-3.135432 0,0 0.08144,-0.366479 -0.12216,-0.04072 -0.28504,0.122159 -1.017997,1.140157 -1.832395,2.646794 -0.285039,0.488638 -0.814398,1.506636 -0.488639,0.977277 -0.732958,1.425196 -0.2036,0.447919 -0.610799,1.099438 -0.244319,0.366479 -0.692238,0.325759 -0.203599,0 -0.244319,-0.08144 -0.529359,-0.488639 -0.773678,-0.732958 -0.12216,-0.2036 -0.04072,-0.732958 0.162879,-1.017998 0.285039,-1.791676 0.12216,-0.529359 0.325759,-1.506636 0.2036,-0.977278 0.24432,-1.180877 0,0 0,-0.2036 -0.08144,-0.04072 -0.2036,0.16288 -0.692238,1.099437 -1.058717,1.710236 -0.16288,0.244319 -0.529359,0.895837 -0.366479,0.651519 -0.570079,0.977278 -0.162879,0.244319 -0.692238,0.977278 -0.244319,0.366479 -0.610798,0.488638 -0.488639,0.12216 -0.814398,-0.203599 -0.04072,-0.04072 -0.12216,-0.12216 -0.08144,-0.08144 -0.16288,-0.12216 -0.04072,-0.08144 -0.122159,-0.162879 -0.04072,-0.08144 -0.12216,-0.12216 -0.325759,-0.325759 -0.325759,-0.773678 0,-0.488639 0.04072,-0.814398 0.122159,-0.773678 0.366479,-2.198874 0.244319,-1.425197 0.325759,-1.913836 0.04072,-0.325759 0.12216,-0.855117 0.08144,-0.570079 0.122159,-0.732959 z"
           style="font-style:normal;font-variant:normal;font-weight:normal;font-stretch:normal;font-family:Guttenbay;-inkscape-font-specification:Guttenbay;text-align:center;text-anchor:middle;stroke-width:0.264585"
           id="path50" />
        <path
           d="m 81.641597,73.155601 q 0.32576,-0.366479 0.936558,-0.32576 0.2036,0.36648 0.2036,0.529359 0.04072,0.16288 0,0.773678 0.244319,-0.08144 0.244319,-0.08144 1.873115,-1.221597 2.768953,-3.257591 0.895838,-2.076715 0.732958,-3.990551 0,0 -0.08144,-0.447918 -0.325759,0.162879 -0.366479,0.162879 -0.773678,0.488639 -1.547356,1.465917 -1.710236,2.158154 -3.379751,5.415746 -0.16288,0.244319 -0.447919,1.547356 -0.24432,1.303037 -1.099438,5.741506 -0.488638,2.565353 -0.732958,4.642068 -0.04072,0.447919 0,1.140157 0,0.855118 0.407199,1.425197 0,0 0.16288,0.325759 -0.08144,0.447919 -0.529359,0.366479 -1.628796,-0.285039 -2.158154,-1.506636 -0.32576,-0.855118 -0.32576,-1.669516 -0.04072,-1.425196 0.04072,-2.646793 0.08144,-0.855118 0.32576,-2.646794 0.244319,-2.076715 0.895837,-4.723508 1.262317,-5.375027 1.547356,-6.515184 0.12216,-0.488638 0.977278,-3.176152 0,-0.04072 0.203599,-0.529358 0.28504,-0.651519 0.936558,-0.651519 0.692238,0.447919 0.773678,0.651519 0.08144,0.162879 -0.04072,0.895837 -0.04072,0.407199 -0.122159,1.262317 -0.04072,0.04072 -0.04072,0.651519 0.285039,-0.36648 0.285039,-0.407199 1.099437,-1.588076 1.140157,-1.588076 0.529359,-0.732959 1.221597,-1.221597 0.651518,-0.447919 1.465916,-0.447919 0.895838,0 1.384477,0.692238 1.465916,1.954555 1.099437,4.194149 -0.570078,3.257592 -2.646793,5.415747 -0.814398,0.855118 -1.750956,1.343757 -0.570078,0.325759 -1.058717,0.366479 -0.936558,0.122159 -1.425197,-0.570079 -0.122159,-0.16288 -0.407199,-0.447919 -0.488638,-0.529358 -0.162879,-1.221597 0.203599,-0.407199 0.570078,-0.936557 z m -2.768953,3.461191 q -0.366479,1.180877 -0.732958,3.82767 -0.407199,2.646794 -0.325759,3.420472 0.244319,-1.791676 0.244319,-1.913835 0.12216,-0.773678 0.366479,-2.239595 0.28504,-1.465916 0.36648,-1.913835 0.162879,-0.814398 0.08144,-1.180877 z M 85.347108,73.5628 q -0.08144,0.08144 -0.366479,0.366479 -0.244319,0.244319 -0.407199,0.407199 0,0 0.04072,0.04072 0.04072,0 0.04072,0 0.570078,-0.529359 0.651518,-0.651519 0.12216,-0.12216 0.04072,-0.162879 z m -1.017997,-6.881663 q 0.203599,-0.2036 0.529358,-0.488639 0,-0.04072 -0.04072,-0.08144 -0.04072,-0.04072 -0.04072,-0.04072 -0.407199,0.366479 -0.447918,0.610799 z m -6.637344,17.590996 v 0.570078 q 0,0 0.04072,0 v -0.570078 q -0.04072,0 -0.04072,0 z m 5.985825,-16.898758 q 0.2036,-0.16288 0.2036,-0.16288 0.04072,-0.04072 0.162879,-0.203599 -0.203599,0 -0.366479,0.366479 z"
           style="font-style:normal;font-variant:normal;font-weight:normal;font-stretch:normal;font-family:Guttenbay;-inkscape-font-specification:Guttenbay;text-align:center;text-anchor:middle;stroke-width:0.264585"
           id="path52" />
        <path
           d="m 96.46555,66.192498 q -0.203599,0.732958 -0.285039,0.855118 -0.407199,-0.12216 -0.447919,-0.488639 -0.08144,-0.610798 -0.122159,-0.732958 0,-0.04072 -0.16288,-0.447919 -0.285039,0 -0.732958,0.366479 -0.610799,0.529359 -0.977278,1.180877 -0.651518,1.140157 -1.058717,1.995275 -0.855118,1.710236 -1.303037,3.135432 -0.203599,0.651519 -0.162879,0.895838 0.855117,-0.610798 1.750955,-1.628796 0.895838,-0.977277 1.343757,-1.913835 0.08144,-0.12216 1.017997,-2.117435 0.610799,-0.08144 0.651519,-0.08144 0.529358,0 0.732958,0.447919 0.162879,0.366479 0.447919,0.773678 0.244319,0.32576 0.162879,0.814398 -0.122159,1.221597 -0.162879,2.035995 -0.08144,1.465917 0.285039,3.053993 0.04072,0.325759 0.04072,0.529358 0,0.16288 -0.16288,0.24432 -0.122159,0.04072 -0.244319,-0.04072 -0.16288,-0.12216 -0.24432,-0.24432 -0.692238,-0.732958 -0.895837,-1.465916 -0.04072,-0.08144 -0.366479,-1.099437 -0.12216,0 -0.32576,0.285039 -0.895837,1.180877 -2.321034,2.321034 -0.651518,0.570079 -1.180877,0.692239 -0.366479,0.08144 -0.814398,0.122159 -0.366479,0 -0.814398,-0.325759 -0.04072,-0.04072 -0.325759,-0.366479 -0.285039,-0.325759 -0.570078,-0.651518 -0.24432,-0.366479 -0.28504,-0.407199 -0.325759,-0.814398 -0.122159,-1.954555 0.203599,-1.140158 0.692238,-2.198875 0.855118,-1.791675 2.076715,-3.542631 0.570078,-0.855118 1.140157,-1.303037 0.773678,-0.610798 1.425196,-0.773678 0.407199,-0.08144 0.814398,-0.08144 0.610799,0.04072 0.977278,0.529359 0.122159,0.16288 0.366479,0.570079 0.325759,0.488638 0.162879,1.017997 z m -2.239594,5.578626 q -0.325759,0.325759 -1.058717,1.058717 -0.732959,0.732959 -1.140158,1.140158 0.407199,-0.2036 0.855118,-0.570079 0.488639,-0.407199 0.855118,-0.855118 0.366479,-0.447919 0.488639,-0.773678 z m -0.773678,-5.985825 q 0,0 0.08144,-0.16288 -0.28504,0.16288 -0.407199,0.447919 0.285039,-0.285039 0.325759,-0.285039 z"
           style="font-style:normal;font-variant:normal;font-weight:normal;font-stretch:normal;font-family:Guttenbay;-inkscape-font-specification:Guttenbay;text-align:center;text-anchor:middle;stroke-width:0.264585"
           id="path54" />
        <path
           d="m 106.04427,77.30903 q 0,0 0,0.12216 -0.16288,0.203599 -0.48864,0.08144 -0.28504,-0.12216 -0.44792,-0.28504 -1.14016,-1.099437 -1.34376,-2.443193 0,-0.04072 -0.16287,-0.855118 -0.32576,0.203599 -0.32576,0.244319 -1.018,0.773678 -1.018,0.773678 -0.32576,0.2036 -0.73296,0.325759 -1.30304,0.366479 -1.995275,-0.814398 -0.285039,-0.447919 -0.366479,-0.570078 -0.895838,-0.855118 -0.855118,-2.443194 0.04072,-1.099437 0.692239,-2.524634 0.773678,-1.750955 1.913833,-3.216872 0.8144,-1.017997 1.8324,-1.588076 1.18087,-0.610798 2.36175,-0.407199 0.12216,-0.285039 0.12216,-0.285039 0.89584,-3.013273 2.60607,-7.85894 0.36648,-0.977278 0.65152,-1.710236 0,-0.04072 0.28504,-0.692238 0.93656,-0.08144 1.30304,0.285039 -0.0407,0.162879 -0.0407,0.407199 0.12216,0.04072 0.16288,0.04072 0.0407,0.04072 0.0407,0.04072 0.36648,0.977277 0.2036,1.465916 -0.12216,0.407199 -0.24432,0.855118 -0.12216,0.407199 -0.24432,0.773678 -0.12216,0.366479 -0.28504,0.814398 -0.12216,0.447919 -0.24432,0.814398 -0.0814,0.366479 -0.24432,0.814398 -0.12216,0.447919 -0.24432,0.814398 -0.16288,0.610798 -0.89584,2.891113 -0.73295,2.239594 -1.09943,3.461191 -0.93656,3.135432 -1.34376,5.822945 -0.2036,1.384477 -0.2036,2.402474 0,1.384477 0.57008,2.198875 0.0407,0.08144 0.0814,0.244319 z m -4.92711,-4.967827 q 0,0.04072 -0.0407,0.651518 0.44792,-0.203599 0.44792,-0.203599 0.8144,-0.407199 1.75096,-1.221597 0.40719,-0.32576 0.44791,-0.895838 0.12216,-0.977278 0.24432,-1.710236 0.0814,-0.407199 0.16288,-0.895838 0.12216,-0.488638 0.2036,-0.977277 0.12216,-0.529359 0.2036,-0.895838 0,0 0,-0.488639 -0.69224,0.570079 -1.18087,1.343757 -1.66952,2.646793 -2.2396,5.293587 z m 2.4432,-7.248142 q -0.69224,0.203599 -0.89584,0.814398 0.4072,-0.366479 0.44792,-0.407199 0.0407,-0.04072 0.12216,-0.12216 0.0814,-0.08144 0.16288,-0.16288 0.12216,-0.08144 0.16288,-0.122159 z m -0.69224,8.02182 q 0.36648,-0.08144 0.52936,-0.447919 -0.2036,0.162879 -0.52936,0.447919 z"
           style="font-style:normal;font-variant:normal;font-weight:normal;font-stretch:normal;font-family:Guttenbay;-inkscape-font-specification:Guttenbay;text-align:center;text-anchor:middle;stroke-width:0.264585"
           id="path56" />
        <path
           d="m 110.95356,64.237943 q 0.57008,-0.244319 0.89584,0.203599 0,0 0.28504,0.32576 -0.12216,0.488638 -0.12216,0.488638 -0.2036,0.651519 -0.57008,1.791676 -0.32576,1.140157 -0.6108,2.117435 -0.28504,0.936557 -0.52936,1.750955 -0.2036,0.610799 -0.4072,1.791676 -0.0814,0.244319 -0.0814,0.855118 -0.0407,0.936557 0.48864,1.384476 0.0407,0 0.24432,0.285039 -0.4072,0.407199 -0.97728,0.08144 -1.66951,-0.936557 -1.79167,-2.809673 -0.12216,-1.343756 0.16288,-2.565353 0.52936,-2.321035 1.79167,-4.479189 0.24432,-0.407199 0.65152,-0.855118 0.2036,-0.2036 0.57008,-0.366479 z m -0.12216,1.628796 q 0.0407,-0.12216 0.12216,-0.285039 0.12216,-0.2036 0.16288,-0.32576 0,0 -0.0407,0 -0.0407,0 -0.0407,-0.04072 -0.0407,0.12216 -0.16288,0.28504 -0.0814,0.162879 -0.12216,0.285039 0,0 0,0.04072 0.0407,0 0.0814,0.04072 z m 2.68751,-7.370302 q 0.48864,0.447919 0.12216,1.221597 -0.24432,0.570079 -0.44791,0.977278 -0.52936,1.140157 -0.48864,1.832395 -0.4072,0.2036 -0.65152,0 -0.85512,-0.773678 -0.77368,-1.873115 0.0407,-0.651519 0.16288,-1.058718 0.12216,-0.570078 0.57008,-1.017997 0.32576,-0.325759 0.57008,-0.407199 0.24432,-0.08144 0.73296,0.04072 0.16287,0.244319 0.20359,0.285039 z"
           style="font-style:normal;font-variant:normal;font-weight:normal;font-stretch:normal;font-family:Guttenbay;-inkscape-font-specification:Guttenbay;text-align:center;text-anchor:middle;stroke-width:0.264585"
           id="path58" />
        <path
           d="m 119.29096,66.192498 q -0.2036,0.732958 -0.28504,0.855118 -0.4072,-0.12216 -0.44792,-0.488639 -0.0814,-0.610798 -0.12216,-0.732958 0,-0.04072 -0.16288,-0.447919 -0.28504,0 -0.73296,0.366479 -0.61079,0.529359 -0.97727,1.180877 -0.65152,1.140157 -1.05872,1.995275 -0.85512,1.710236 -1.30304,3.135432 -0.2036,0.651519 -0.16288,0.895838 0.85512,-0.610798 1.75096,-1.628796 0.89584,-0.977277 1.34375,-1.913835 0.0814,-0.12216 1.018,-2.117435 0.6108,-0.08144 0.65152,-0.08144 0.52936,0 0.73296,0.447919 0.16288,0.366479 0.44792,0.773678 0.24432,0.32576 0.16288,0.814398 -0.12216,1.221597 -0.16288,2.035995 -0.0814,1.465917 0.28504,3.053993 0.0407,0.325759 0.0407,0.529358 0,0.16288 -0.16288,0.24432 -0.12216,0.04072 -0.24432,-0.04072 -0.16288,-0.12216 -0.24432,-0.24432 -0.69224,-0.732958 -0.89584,-1.465916 -0.0407,-0.08144 -0.36648,-1.099437 -0.12216,0 -0.32576,0.285039 -0.89584,1.180877 -2.32103,2.321034 -0.65152,0.570079 -1.18088,0.692239 -0.36648,0.08144 -0.8144,0.122159 -0.36648,0 -0.81439,-0.325759 -0.0407,-0.04072 -0.32576,-0.366479 -0.28504,-0.325759 -0.57008,-0.651518 -0.24432,-0.366479 -0.28504,-0.407199 -0.32576,-0.814398 -0.12216,-1.954555 0.2036,-1.140158 0.69224,-2.198875 0.85511,-1.791675 2.07671,-3.542631 0.57008,-0.855118 1.14016,-1.303037 0.77368,-0.610798 1.4252,-0.773678 0.40719,-0.08144 0.81439,-0.08144 0.6108,0.04072 0.97728,0.529359 0.12216,0.16288 0.36648,0.570079 0.32576,0.488638 0.16288,1.017997 z m -2.2396,5.578626 q -0.32575,0.325759 -1.05871,1.058717 -0.73296,0.732959 -1.14016,1.140158 0.4072,-0.2036 0.85512,-0.570079 0.48864,-0.407199 0.85512,-0.855118 0.36648,-0.447919 0.48863,-0.773678 z m -0.77367,-5.985825 q 0,0 0.0814,-0.16288 -0.28504,0.16288 -0.4072,0.447919 0.28504,-0.285039 0.32576,-0.285039 z"
           style="font-style:normal;font-variant:normal;font-weight:normal;font-stretch:normal;font-family:Guttenbay;-inkscape-font-specification:Guttenbay;text-align:center;text-anchor:middle;stroke-width:0.264585"
           id="path60" />
      </g>
    </g>
  </g>
</svg>
